<mxfile host="Electron" agent="Mozilla/5.0 (Macintosh; Intel Mac OS X 10_15_7) AppleWebKit/537.36 (KHTML, like Gecko) draw.io/24.7.17 Chrome/128.0.6613.36 Electron/32.0.1 Safari/537.36" version="24.7.17">
  <diagram name="Page-1" id="Ugc3xgycTWf8aTmjeZiq">
    <mxGraphModel dx="2901" dy="1214" grid="1" gridSize="10" guides="1" tooltips="1" connect="1" arrows="1" fold="1" page="1" pageScale="1" pageWidth="827" pageHeight="1169" math="0" shadow="0">
      <root>
        <mxCell id="0" />
        <mxCell id="1" parent="0" />
        <mxCell id="JmF7sgnx8N5SuLSKMq4n-1" value="VPC" style="sketch=0;outlineConnect=0;gradientColor=none;html=1;whiteSpace=wrap;fontSize=12;fontStyle=0;shape=mxgraph.aws4.group;grIcon=mxgraph.aws4.group_vpc;strokeColor=#B6BABF;fillColor=none;verticalAlign=top;align=left;spacingLeft=30;fontColor=#B6BABF;dashed=0;" vertex="1" parent="1">
          <mxGeometry x="160" y="320" width="200" height="400" as="geometry" />
        </mxCell>
        <mxCell id="JmF7sgnx8N5SuLSKMq4n-2" value="" style="sketch=0;points=[[0,0,0],[0.25,0,0],[0.5,0,0],[0.75,0,0],[1,0,0],[0,1,0],[0.25,1,0],[0.5,1,0],[0.75,1,0],[1,1,0],[0,0.25,0],[0,0.5,0],[0,0.75,0],[1,0.25,0],[1,0.5,0],[1,0.75,0]];outlineConnect=0;fontColor=#232F3E;fillColor=#ED7100;strokeColor=#ffffff;dashed=0;verticalLabelPosition=bottom;verticalAlign=top;align=center;html=1;fontSize=12;fontStyle=0;aspect=fixed;shape=mxgraph.aws4.resourceIcon;resIcon=mxgraph.aws4.eks;" vertex="1" parent="1">
          <mxGeometry x="215.5" y="592" width="78" height="78" as="geometry" />
        </mxCell>
        <mxCell id="JmF7sgnx8N5SuLSKMq4n-3" value="" style="outlineConnect=0;dashed=0;verticalLabelPosition=bottom;verticalAlign=top;align=center;html=1;shape=mxgraph.aws3.ecr;fillColor=#F58534;gradientColor=none;" vertex="1" parent="1">
          <mxGeometry x="220" y="424" width="69" height="72" as="geometry" />
        </mxCell>
        <mxCell id="JmF7sgnx8N5SuLSKMq4n-12" style="edgeStyle=orthogonalEdgeStyle;rounded=0;orthogonalLoop=1;jettySize=auto;html=1;entryX=0;entryY=0.5;entryDx=0;entryDy=0;" edge="1" parent="1" source="JmF7sgnx8N5SuLSKMq4n-4" target="JmF7sgnx8N5SuLSKMq4n-9">
          <mxGeometry relative="1" as="geometry" />
        </mxCell>
        <mxCell id="JmF7sgnx8N5SuLSKMq4n-4" value="" style="dashed=0;outlineConnect=0;html=1;align=center;labelPosition=center;verticalLabelPosition=bottom;verticalAlign=top;shape=mxgraph.webicons.github;gradientColor=#DFDEDE" vertex="1" parent="1">
          <mxGeometry x="-310" y="358.8" width="102.4" height="102.4" as="geometry" />
        </mxCell>
        <mxCell id="JmF7sgnx8N5SuLSKMq4n-6" style="edgeStyle=orthogonalEdgeStyle;rounded=0;orthogonalLoop=1;jettySize=auto;html=1;" edge="1" parent="1" source="JmF7sgnx8N5SuLSKMq4n-5" target="JmF7sgnx8N5SuLSKMq4n-4">
          <mxGeometry relative="1" as="geometry" />
        </mxCell>
        <mxCell id="JmF7sgnx8N5SuLSKMq4n-7" value="Sorucecode" style="edgeLabel;html=1;align=center;verticalAlign=middle;resizable=0;points=[];" vertex="1" connectable="0" parent="JmF7sgnx8N5SuLSKMq4n-6">
          <mxGeometry x="-0.5892" y="-4" relative="1" as="geometry">
            <mxPoint x="27" y="-4" as="offset" />
          </mxGeometry>
        </mxCell>
        <mxCell id="JmF7sgnx8N5SuLSKMq4n-5" value="User" style="sketch=0;outlineConnect=0;fontColor=#232F3E;gradientColor=none;strokeColor=#232F3E;fillColor=#ffffff;dashed=0;verticalLabelPosition=bottom;verticalAlign=top;align=center;html=1;fontSize=12;fontStyle=0;aspect=fixed;shape=mxgraph.aws4.resourceIcon;resIcon=mxgraph.aws4.user;" vertex="1" parent="1">
          <mxGeometry x="-580" y="380" width="60" height="60" as="geometry" />
        </mxCell>
        <mxCell id="JmF7sgnx8N5SuLSKMq4n-8" style="edgeStyle=orthogonalEdgeStyle;rounded=0;orthogonalLoop=1;jettySize=auto;html=1;entryX=0;entryY=0.5;entryDx=0;entryDy=0;entryPerimeter=0;" edge="1" parent="1" source="JmF7sgnx8N5SuLSKMq4n-10" target="JmF7sgnx8N5SuLSKMq4n-2">
          <mxGeometry relative="1" as="geometry" />
        </mxCell>
        <mxCell id="JmF7sgnx8N5SuLSKMq4n-13" style="edgeStyle=orthogonalEdgeStyle;rounded=0;orthogonalLoop=1;jettySize=auto;html=1;" edge="1" parent="1" source="JmF7sgnx8N5SuLSKMq4n-9" target="JmF7sgnx8N5SuLSKMq4n-3">
          <mxGeometry relative="1" as="geometry" />
        </mxCell>
        <mxCell id="JmF7sgnx8N5SuLSKMq4n-9" value="Build" style="whiteSpace=wrap;html=1;" vertex="1" parent="1">
          <mxGeometry x="-100" y="430" width="120" height="60" as="geometry" />
        </mxCell>
        <mxCell id="JmF7sgnx8N5SuLSKMq4n-11" value="" style="edgeStyle=orthogonalEdgeStyle;rounded=0;orthogonalLoop=1;jettySize=auto;html=1;entryX=0;entryY=0.5;entryDx=0;entryDy=0;entryPerimeter=0;" edge="1" parent="1" source="JmF7sgnx8N5SuLSKMq4n-4" target="JmF7sgnx8N5SuLSKMq4n-10">
          <mxGeometry relative="1" as="geometry">
            <mxPoint x="-218" y="490" as="sourcePoint" />
            <mxPoint x="270" y="499" as="targetPoint" />
          </mxGeometry>
        </mxCell>
        <mxCell id="JmF7sgnx8N5SuLSKMq4n-10" value="Deploy" style="whiteSpace=wrap;html=1;" vertex="1" parent="1">
          <mxGeometry x="-100" y="601" width="120" height="60" as="geometry" />
        </mxCell>
      </root>
    </mxGraphModel>
  </diagram>
</mxfile>
